<?xml version="1.0" encoding="utf-8"?>
<!-- Generator: Adobe Illustrator 16.0.0, SVG Export Plug-In . SVG Version: 6.00 Build 0)  -->
<!DOCTYPE svg PUBLIC "-//W3C//DTD SVG 1.1//EN" "http://www.w3.org/Graphics/SVG/1.1/DTD/svg11.dtd">
<svg version="1.1" id="Capa_1" xmlns="http://www.w3.org/2000/svg" xmlns:xlink="http://www.w3.org/1999/xlink" x="0px" y="0px"
	 width="800px" height="800px" viewBox="0 0 800 800" enable-background="new 0 0 800 800" xml:space="preserve">
<title>LogotipoOficialUPN164-2017</title>
<g id="KiKz8w.tif">
	<path d="M425.886,354.976h14.816c43.071,0.603,86.142,0.603,129.213,2.326c43.071,1.723,69.688,27.996,70.809,71.411
		c1.12,46.259,0,92,0,137.827c0.981,6.973-3.876,13.42-10.849,14.401c-0.202,0.028-0.405,0.052-0.608,0.07h-76.58V450.938
		c0-13.696-3.445-17.745-17.745-17.745h-4.565c-16.022,0-19.985,3.963-20.588,19.985v126.37h-83.902V354.976z"/>
	<path d="M394.443,673.184H243.609c-33.792,1.078-62.239-25.071-64.003-58.835v-2.325c-1.12-51.686,0-104.576-0.603-156.521
		c0-1.119,0.603-2.325,0.603-3.445h86.831v125.164c0,13.696,3.962,19.382,15.419,19.985c18.262,1.119,25.153-2.843,25.843-17.745
		c1.119-30.236,0.603-61.161,1.119-92v-35.663h85.108L394.443,673.184z"/>
	<path d="M395.563,418.979h-85.625V144.187h85.711L395.563,418.979z"/>
	<path d="M425.886,144.187c33.682-3.446,83.386,38.247,85.108,90.793c1.723,49.101-39.453,94.756-85.108,93.723V144.187z"/>
</g>
<g enable-background="new    ">
	<path d="M81.704,326.029l-7.917,26.208l-43.7-13.201l7.613-25.203l8.015,2.421l-4.64,15.359l9.721,2.937l4.317-14.292l7.984,2.412
		l-4.317,14.292l9.996,3.02l4.943-16.365L81.704,326.029z"/>
</g>
<g enable-background="new    ">
	<path d="M84.881,316.619l-41.794-18.363l6.505-14.806c6.523-14.845,16.575-19.284,30.157-13.316
		c6.509,2.86,10.816,7.169,12.922,12.928c2.106,5.758,1.678,12.009-1.285,18.751L84.881,316.619z M54.888,292.209l26.493,11.641
		l2.049-4.663c1.793-4.08,1.976-7.819,0.548-11.217c-1.428-3.397-4.25-6.022-8.467-7.875c-3.982-1.75-7.622-1.976-10.916-0.676
		c-3.296,1.299-5.857,4.028-7.684,8.186L54.888,292.209z"/>
</g>
<g enable-background="new    ">
	<path d="M105.915,233.5c11.732,7.094,14.293,16.107,7.683,27.041c-6.413,10.606-15.349,12.445-26.81,5.516l-22.556-13.639
		l5.336-8.826l22.665,13.704c6.32,3.822,10.974,3.263,13.961-1.678c2.932-4.849,1.346-9.118-4.755-12.808l-22.992-13.902l5.32-8.799
		L105.915,233.5z"/>
</g>
<g enable-background="new    ">
	<path d="M145.459,211.721c-0.773,3.62-2.81,7.549-6.108,11.786c-4.302,5.526-9.31,8.607-15.022,9.244
		c-5.713,0.636-11.274-1.151-16.685-5.363c-5.76-4.484-9.047-9.901-9.86-16.25c-0.814-6.348,0.988-12.362,5.408-18.039
		c2.738-3.517,5.491-6.135,8.255-7.856l7.813,6.082c-3.317,1.291-6.176,3.477-8.575,6.559c-2.633,3.383-3.695,6.94-3.185,10.672
		c0.509,3.732,2.582,7.013,6.216,9.842c3.483,2.711,7.021,3.893,10.615,3.543c3.594-0.349,6.681-2.182,9.262-5.498
		c2.464-3.165,3.95-6.661,4.456-10.49L145.459,211.721z"/>
</g>
<g enable-background="new    ">
	<path d="M179.858,178.506l-7.85,7.997l-9.522-4.797l-11.374,11.586l4.995,9.409l-7.805,7.951l-20.936-43.838l8.542-8.701
		L179.858,178.506z M155.203,177.856l-14.385-7.251c-1.071-0.545-2.226-1.322-3.466-2.332l-0.179,0.182
		c0.88,1.013,1.641,2.131,2.283,3.355l7.562,14.383L155.203,177.856z"/>
</g>
<g enable-background="new    ">
	<path d="M209.96,154.898l-9.198,7.409l-12.897-4.695c-0.973-0.361-1.869-0.662-2.688-0.902c-0.82-0.238-1.58-0.396-2.282-0.472
		c-0.7-0.075-1.345-0.046-1.933,0.086c-0.588,0.133-1.13,0.399-1.626,0.798l-2.157,1.738l10.963,13.611l-8.008,6.45L151.5,143.368
		l12.694-10.224c8.627-6.949,15.538-7.2,20.729-0.755c0.999,1.24,1.73,2.538,2.196,3.893c0.465,1.356,0.69,2.735,0.675,4.138
		c-0.016,1.401-0.268,2.805-0.76,4.208c-0.49,1.404-1.2,2.766-2.126,4.084l0.08,0.099c0.662-0.26,1.391-0.404,2.186-0.432
		c0.795-0.028,1.624,0.02,2.486,0.143c0.862,0.124,1.734,0.3,2.615,0.531s1.714,0.479,2.5,0.744L209.96,154.898z M164.34,142.918
		l7.967,9.892l3.471-2.796c1.719-1.384,2.699-2.992,2.942-4.821c0.246-1.86-0.23-3.535-1.429-5.022
		c-2.502-3.107-5.613-3.164-9.333-0.168L164.34,142.918z"/>
</g>
<g enable-background="new    ">
	<path d="M231.586,123.459l7.598,13.77l-9.003,4.967l-22.053-39.97l14.104-7.781c10.071-5.557,17.45-4.089,22.135,4.402
		c2.215,4.015,2.561,8.058,1.041,12.133c-1.521,4.076-4.697,7.446-9.528,10.111L231.586,123.459z M220.944,104.171l6.874,12.46
		l3.54-1.953c4.794-2.645,6.033-6.068,3.716-10.267c-2.266-4.106-5.796-4.837-10.59-2.193L220.944,104.171z"/>
</g>
<g enable-background="new    ">
	<path d="M298.06,109.84l-10.323,4.358l-6.941-8.092l-14.957,6.315l0.988,10.606l-10.265,4.334l-2.447-48.519l11.232-4.743
		L298.06,109.84z M275.554,99.75L265.069,87.52c-0.778-0.916-1.546-2.077-2.301-3.486l-0.235,0.099
		c0.422,1.273,0.694,2.599,0.814,3.976l1.443,16.186L275.554,99.75z"/>
</g>
<g enable-background="new    ">
	<path d="M334.83,99.632l-11.338,3.307l-10.104-9.29c-0.76-0.707-1.471-1.329-2.136-1.864c-0.665-0.535-1.307-0.973-1.925-1.312
		s-1.225-0.56-1.818-0.663s-1.196-0.066-1.808,0.112l-2.659,0.775l4.895,16.778l-9.872,2.879l-12.782-43.824l15.647-4.564
		c10.635-3.102,17.111-0.679,19.429,7.266c0.445,1.527,0.622,3.007,0.531,4.438c-0.092,1.431-0.413,2.79-0.965,4.079
		c-0.554,1.288-1.326,2.487-2.318,3.593c-0.992,1.108-2.17,2.092-3.532,2.954l0.035,0.122c0.712,0.014,1.439,0.161,2.186,0.441
		c0.744,0.28,1.491,0.642,2.24,1.087c0.748,0.445,1.485,0.943,2.209,1.495c0.725,0.551,1.399,1.101,2.023,1.648L334.83,99.632z
		 M297.312,71.047l3.556,12.193l4.278-1.248c2.119-0.618,3.643-1.726,4.569-3.322c0.941-1.624,1.146-3.352,0.61-5.186
		c-1.117-3.829-3.969-5.076-8.552-3.739L297.312,71.047z"/>
</g>
<g enable-background="new    ">
	<path d="M377.431,92.839l-11.055,1.836l-4.867-9.486l-16.016,2.66l-1.509,10.544l-10.991,1.826l8.914-47.756l12.027-1.998
		L377.431,92.839z M357.892,77.787l-7.351-14.334c-0.543-1.071-1.02-2.379-1.426-3.926l-0.252,0.042
		c0.114,1.336,0.07,2.688-0.133,4.056l-2.364,16.076L357.892,77.787z"/>
</g>
<g enable-background="new    ">
	<path d="M430.714,55.097l-13.02-0.13l-0.372,37.277l-10.314-0.103l0.372-37.277l-12.955-0.129l0.084-8.372l36.289,0.363
		L430.714,55.097z"/>
</g>
<g enable-background="new    ">
	<path d="M475.107,97.385l-11.723-1.438l-5.616-12.523c-0.419-0.949-0.827-1.801-1.227-2.556c-0.398-0.755-0.817-1.41-1.251-1.965
		s-0.903-0.998-1.408-1.328c-0.505-0.329-1.073-0.532-1.706-0.61l-2.748-0.337l-2.127,17.348l-10.206-1.251l5.556-45.311
		l16.179,1.983c10.995,1.349,15.989,6.13,14.982,14.345c-0.194,1.58-0.615,3.01-1.264,4.288c-0.648,1.279-1.48,2.4-2.497,3.366
		c-1.018,0.966-2.199,1.762-3.548,2.388c-1.35,0.625-2.82,1.065-4.412,1.319l-0.016,0.126c0.647,0.293,1.259,0.715,1.833,1.267
		c0.573,0.552,1.117,1.179,1.63,1.884c0.512,0.704,0.992,1.453,1.44,2.246c0.448,0.792,0.85,1.563,1.208,2.313L475.107,97.385z
		 M451.92,56.311l-1.546,12.608l4.424,0.542c2.19,0.269,4.026-0.148,5.509-1.249c1.506-1.12,2.375-2.627,2.607-4.523
		c0.485-3.96-1.641-6.231-6.381-6.812L451.92,56.311z"/>
</g>
<g enable-background="new    ">
	<path d="M517.153,107.855l-10.886-2.662l-0.742-10.635l-15.771-3.856l-5.536,9.101l-10.822-2.646l26.984-40.396l11.844,2.896
		L517.153,107.855z M505.112,86.33l-1.117-16.069c-0.079-1.199-0.001-2.589,0.232-4.171l-0.247-0.061
		c-0.421,1.274-0.993,2.5-1.718,3.677l-8.5,13.849L505.112,86.33z"/>
</g>
<g enable-background="new    ">
	<path d="M555.314,122.537l-9.727-3.621l-7.623-33.445c-0.449-1.956-0.723-3.406-0.825-4.351l-0.119-0.044
		c-0.404,1.571-1.183,3.908-2.338,7.011l-8.753,23.508l-9.1-3.388l15.929-42.781l10.382,3.866l7.278,32.365
		c0.338,1.462,0.621,2.892,0.848,4.29l0.119,0.045c0.211-1.054,0.861-3.042,1.95-5.966l8.809-23.658l9.099,3.388L555.314,122.537z"
		/>
</g>
<g enable-background="new    ">
	<path d="M557.206,122.207l4.704-9.036c0.921,2.227,2.164,4.184,3.728,5.87c1.561,1.688,3.321,3.04,5.279,4.059
		c1.147,0.598,2.204,1.017,3.17,1.256c0.963,0.238,1.828,0.323,2.594,0.255c0.765-0.068,1.418-0.278,1.96-0.63
		c0.542-0.352,0.966-0.819,1.27-1.403c0.411-0.791,0.553-1.613,0.425-2.47c-0.128-0.856-0.446-1.751-0.953-2.685
		s-1.169-1.925-1.987-2.973c-0.818-1.048-1.717-2.149-2.695-3.305c-2.476-2.964-3.996-5.801-4.56-8.511
		c-0.563-2.709-0.144-5.411,1.258-8.103c1.098-2.108,2.465-3.7,4.101-4.774s3.438-1.721,5.406-1.941
		c1.969-0.219,4.033-0.059,6.193,0.479c2.159,0.539,4.313,1.366,6.459,2.483c2.108,1.098,3.911,2.197,5.407,3.299
		c1.496,1.103,2.794,2.275,3.894,3.517l-4.395,8.443c-0.433-0.823-0.957-1.622-1.57-2.396c-0.614-0.774-1.283-1.499-2.008-2.175
		s-1.477-1.29-2.255-1.838c-0.779-0.549-1.545-1.02-2.298-1.412c-1.036-0.539-2.027-0.93-2.979-1.173
		c-0.949-0.243-1.811-0.338-2.58-0.284c-0.77,0.054-1.444,0.247-2.023,0.579c-0.58,0.332-1.031,0.809-1.355,1.431
		c-0.353,0.678-0.489,1.378-0.411,2.101s0.322,1.495,0.731,2.318s0.963,1.71,1.665,2.661c0.701,0.952,1.518,1.98,2.448,3.087
		c1.267,1.521,2.346,2.997,3.238,4.431c0.892,1.434,1.55,2.871,1.973,4.311c0.422,1.44,0.558,2.905,0.405,4.392
		c-0.153,1.488-0.655,3.051-1.508,4.688c-1.176,2.259-2.592,3.933-4.246,5.021c-1.655,1.089-3.465,1.726-5.428,1.912
		c-1.964,0.187-4.027-0.021-6.191-0.621c-2.163-0.6-4.328-1.464-6.493-2.59c-2.221-1.156-4.235-2.445-6.045-3.865
		C559.725,125.193,558.282,123.725,557.206,122.207z"/>
</g>
<g enable-background="new    ">
	<path d="M633.479,125.848l-13.429-8.898l-6.189,9.341l12.341,8.177l-4.607,6.953l-12.341-8.177l-9.795,14.781l-8.57-5.68
		l25.217-38.054l21.999,14.577L633.479,125.848z"/>
</g>
<g enable-background="new    ">
	<path d="M633.893,174.554c-5.001-4.211-7.705-9.27-8.113-15.177c-0.408-5.906,1.589-11.474,5.991-16.701
		c4.647-5.519,10.006-8.637,16.074-9.353c6.068-0.716,11.741,1.147,17.018,5.59c4.983,4.196,7.64,9.221,7.968,15.076
		c0.329,5.853-1.756,11.45-6.253,16.791c-4.621,5.487-9.94,8.568-15.961,9.242C644.597,180.697,639.021,178.874,633.893,174.554z
		 M658.942,145.499c-2.76-2.324-5.823-3.135-9.189-2.432c-3.365,0.703-6.484,2.759-9.354,6.168
		c-2.912,3.458-4.404,6.876-4.477,10.256c-0.072,3.379,1.208,6.177,3.838,8.392c2.711,2.284,5.686,3.117,8.924,2.5
		c3.238-0.616,6.32-2.661,9.246-6.136c3.048-3.62,4.648-7.086,4.802-10.397C662.883,150.538,661.621,147.754,658.942,145.499z"/>
</g>
<g enable-background="new    ">
	<path d="M681.281,220.784l-7.991-8.696l3.847-13.175c0.297-0.995,0.539-1.907,0.724-2.741c0.186-0.833,0.293-1.602,0.323-2.307
		c0.029-0.704-0.041-1.346-0.211-1.924c-0.172-0.578-0.473-1.101-0.903-1.571l-1.874-2.039l-12.869,11.825l-6.957-7.571
		l33.613-30.888l11.029,12.003c7.495,8.156,8.196,15.036,2.102,20.636c-1.172,1.077-2.419,1.892-3.742,2.444
		c-1.323,0.552-2.684,0.867-4.084,0.942c-1.4,0.076-2.817-0.084-4.248-0.482c-1.434-0.399-2.839-1.019-4.215-1.857l-0.094,0.086
		c0.303,0.643,0.495,1.361,0.574,2.153s0.085,1.622,0.019,2.49c-0.067,0.868-0.187,1.75-0.359,2.643
		c-0.173,0.894-0.367,1.742-0.581,2.545L681.281,220.784z M690.268,174.48l-9.354,8.594l3.017,3.282
		c1.493,1.625,3.161,2.499,5.003,2.622c1.872,0.125,3.512-0.46,4.918-1.752c2.938-2.7,2.792-5.806-0.438-9.323L690.268,174.48z"/>
</g>
<g enable-background="new    ">
	<path d="M712.673,265.712l-5.796-8.339l22.428-15.59c2.422-1.684,5.169-3.438,8.242-5.265l-0.146-0.209
		c-2.603,1.164-4.531,1.922-5.784,2.277l-31.591,8.933l-4.797-6.901l19.011-26.474c0.51-0.717,1.979-2.319,4.41-4.81l-0.163-0.235
		c-3.538,2.795-6.7,5.161-9.488,7.1l-20.729,14.409L682.982,223l37.484-26.056l8.594,12.363l-16.894,23.105
		c-1.354,1.845-2.832,3.53-4.433,5.057l0.109,0.157c2.4-0.972,4.549-1.729,6.446-2.271l27.49-7.75l8.376,12.051L712.673,265.712z"/>
</g>
<g enable-background="new    ">
	<path d="M730.384,301.423l-5.169-9.943l7.512-7.565l-7.488-14.404l-10.494,1.831l-5.139-9.886l48.168-6.313l5.625,10.818
		L730.384,301.423z M738.646,278.183l11.353-11.428c0.85-0.849,1.947-1.707,3.291-2.573l-0.117-0.226
		c-1.236,0.522-2.535,0.9-3.898,1.131l-16.018,2.729L738.646,278.183z"/>
</g>
<g enable-background="new    ">
	<path d="M743.387,337.284l-4.182-11.046l8.475-10.796c0.646-0.813,1.21-1.57,1.691-2.275c0.482-0.704,0.868-1.379,1.158-2.021
		c0.29-0.643,0.463-1.265,0.521-1.865c0.057-0.6-0.028-1.198-0.254-1.794l-0.98-2.59l-16.346,6.186l-3.64-9.617l42.695-16.159
		l5.77,15.245c3.922,10.36,2.012,17.006-5.729,19.936c-1.489,0.563-2.951,0.855-4.384,0.876c-1.434,0.02-2.813-0.195-4.142-0.646
		s-2.583-1.128-3.764-2.03c-1.182-0.904-2.255-2.001-3.22-3.292l-0.119,0.045c0.041,0.71-0.048,1.447-0.27,2.212
		s-0.524,1.537-0.909,2.318c-0.385,0.781-0.824,1.555-1.317,2.321c-0.493,0.765-0.988,1.479-1.485,2.145L743.387,337.284z
		 M768.96,297.652l-11.88,4.496l1.578,4.168c0.781,2.064,2.004,3.497,3.668,4.296c1.691,0.813,3.431,0.88,5.217,0.204
		c3.732-1.413,4.753-4.351,3.063-8.817L768.96,297.652z"/>
</g>
<g enable-background="new    ">
	<path d="M467.753,594.021v126.982h-20.106v-96.146c-1.107,1.329-2.416,2.585-3.926,3.769c-1.512,1.184-3.118,2.252-4.819,3.204
		c-1.702,0.953-3.469,1.763-5.298,2.426c-1.83,0.664-3.639,1.141-5.426,1.429v-23.04c5.234-2.079,10.17-4.734,14.809-7.969
		c4.638-3.233,8.83-6.785,12.575-10.654H467.753z"/>
	<path d="M560.69,679.687c0,6.122-0.788,11.839-2.362,17.151c-1.574,5.313-3.766,9.917-6.574,13.815
		c-2.809,3.897-6.149,6.959-10.021,9.182c-3.873,2.222-8.106,3.334-12.702,3.334c-5.149,0-9.757-1.299-13.819-3.897
		c-4.064-2.599-7.5-6.366-10.309-11.304s-4.958-10.985-6.447-18.146c-1.49-7.159-2.234-15.273-2.234-24.34
		c0-10.683,0.968-20.369,2.904-29.061c1.937-8.69,4.702-16.124,8.298-22.304c3.596-6.179,7.947-10.957,13.054-14.336
		c5.106-3.378,10.852-5.066,17.234-5.066c7.063,0,12.553,1.126,16.469,3.378v22.867c-4.639-3.58-9.702-5.37-15.192-5.37
		c-3.404,0-6.489,0.896-9.255,2.685c-2.767,1.791-5.139,4.331-7.117,7.623c-1.979,3.291-3.533,7.262-4.66,11.909
		c-1.128,4.649-1.734,9.832-1.819,15.549h0.384c4.34-8.143,10.744-12.214,19.213-12.214c3.787,0,7.213,0.925,10.276,2.772
		c3.064,1.849,5.682,4.46,7.852,7.839c2.17,3.378,3.851,7.436,5.043,12.17C560.094,668.658,560.69,673.913,560.69,679.687z
		 M540.967,681.419c0-13.339-4.021-20.009-12.064-20.009c-1.83,0-3.489,0.463-4.979,1.387c-1.49,0.924-2.767,2.224-3.83,3.897
		c-1.064,1.676-1.883,3.652-2.458,5.934c-0.574,2.281-0.861,4.807-0.861,7.579c0,3.062,0.297,5.92,0.894,8.575
		c0.596,2.656,1.437,4.98,2.521,6.973s2.372,3.566,3.861,4.721c1.489,1.155,3.149,1.732,4.979,1.732
		c1.829,0,3.479-0.505,4.946-1.516c1.469-1.01,2.723-2.426,3.767-4.245c1.042-1.818,1.84-4.013,2.394-6.583
		C540.689,687.296,540.967,684.48,540.967,681.419z"/>
	<path d="M625.798,596.793v78.304h10.979v20.441h-10.979v25.466h-18.383v-25.466h-39.895v-21.395
		c3.532-5.37,7.191-11.246,10.979-17.627c3.786-6.38,7.446-12.949,10.979-19.706c3.531-6.756,6.819-13.556,9.861-20.398
		s5.628-13.383,7.756-19.619H625.798z M585.585,675.097h21.83V631.7c-1.49,3.755-3.106,7.551-4.852,11.391
		c-1.745,3.841-3.574,7.622-5.489,11.347s-3.852,7.334-5.809,10.827C589.308,668.76,587.414,672.036,585.585,675.097z"/>
</g>
<g enable-background="new    ">
	<path d="M222.469,709.897c0,11.922-5.085,17.883-15.256,17.883c-9.867,0-14.8-5.822-14.8-17.468v-22.921h8.211v23.031
		c0,6.423,2.297,9.634,6.893,9.634c4.511,0,6.767-3.101,6.767-9.301v-23.364h8.186V709.897z"/>
	<path d="M263.068,727.088h-8.262l-14.978-24.941c-0.878-1.458-1.487-2.556-1.825-3.294h-0.101c0.135,1.402,0.203,3.543,0.203,6.422
		v21.813h-7.729v-39.696h8.819l14.42,24.167c0.659,1.089,1.267,2.168,1.825,3.238h0.102c-0.136-0.923-0.203-2.74-0.203-5.453
		v-21.952h7.729V727.088z"/>
	<path d="M279.566,727.088h-8.186v-39.696h8.186V727.088z"/>
	<path d="M287.828,727.088v-39.696h12.874c12.908,0,19.362,6.45,19.362,19.35c0,6.183-1.761,11.119-5.284,14.811
		c-3.523,3.691-8.215,5.536-14.078,5.536H287.828z M296.014,694.672v25.163h4.055c3.548,0,6.331-1.162,8.35-3.487
		c2.019-2.326,3.029-5.49,3.029-9.495c0-3.783-1.001-6.759-3.003-8.928c-2.002-2.168-4.811-3.253-8.426-3.253H296.014z"/>
	<path d="M357.267,727.088h-8.92l-2.585-8.831h-12.925l-2.56,8.831h-8.87l13.229-39.696h9.706L357.267,727.088z M343.886,711.393
		l-3.903-13.343c-0.288-0.997-0.49-2.188-0.608-3.571h-0.203c-0.084,1.162-0.295,2.316-0.633,3.46l-3.954,13.454H343.886z"/>
	<path d="M361.803,727.088v-39.696h12.874c12.908,0,19.362,6.45,19.362,19.35c0,6.183-1.761,11.119-5.284,14.811
		c-3.523,3.691-8.215,5.536-14.078,5.536H361.803z M369.989,694.672v25.163h4.055c3.548,0,6.331-1.162,8.35-3.487
		c2.019-2.326,3.029-5.49,3.029-9.495c0-3.783-1.001-6.759-3.003-8.928c-2.002-2.168-4.811-3.253-8.426-3.253H369.989z"/>
</g>
</svg>
