<?xml version="1.0" encoding="utf-8"?>
<!-- Generator: Adobe Illustrator 16.0.0, SVG Export Plug-In . SVG Version: 6.00 Build 0)  -->
<!DOCTYPE svg PUBLIC "-//W3C//DTD SVG 1.1//EN" "http://www.w3.org/Graphics/SVG/1.1/DTD/svg11.dtd">
<svg version="1.1" id="Capa_1" xmlns="http://www.w3.org/2000/svg" xmlns:xlink="http://www.w3.org/1999/xlink" x="0px" y="0px"
	 width="800px" height="800px" viewBox="0 0 800 800" enable-background="new 0 0 800 800" xml:space="preserve">
<g>
	<path fill-rule="evenodd" clip-rule="evenodd" d="M436.51,166.37c-3.027-27.611-20.2-40.326-38.57-43.639
		c3.255,2.293,6.497,4.25,9.364,6.656c12.333,10.344,18.792,23.401,17.56,39.733c-1.144,15.138-10.182,28.059-26.826,33.281
		c-1.172,0.367-2.376,0.618-4.14,1.071c0,4.392-0.043,8.935,0.05,13.474c0.012,0.646,0.614,1.336,1.071,1.905
		c0.836,1.044,1.847,1.955,2.647,3.023c3.261,4.358,3.174,5.907-1.278,8.839c-3.729,2.457-5.932,5.203-5.027,9.994
		c0.466,2.477,0.081,5.115,0.081,7.924c7.608-1.215,12.979-5.529,17.369-11.231c6.293-8.167,9.261-17.75,11.277-27.669
		c0.73-3.583,1.676-6.75,4.18-9.789c5.34-6.478,7.045-14.539,8.065-22.731c0.198-1.585-0.133-3.834,2.601-3.901
		c2.438-0.06,3.234,1.588,3.783,3.522c0.092,0.321,0.206,0.655,0.198,0.981c-0.21,9.598-2.421,18.61-8.444,26.287
		c-1.246,1.588-3.46,2.414-5.745,3.936c-0.632,3.602-0.796,8.315-2.345,12.521c-2.569,6.978-5.907,13.685-9.146,20.397
		c-2.607,5.408-5.596,10.629-8.316,15.982c-1.262,2.487-2.242,5.116-3.438,7.641c-5.373,11.365-12.619,15.112-24.921,12.788
		c-3.063-0.579-6.127-1.316-9.071-2.329c-2.915-1.002-5.677-2.445-8.33-3.617c4.936,7.718,17.354,13.938,27.509,14.004
		c11.261,0.071,21.221-3.395,30.139-10.59c3.829,8.108,7.529,15.947,11.225,23.774c-16.938,8.756-60.216,9.298-80.094,1.014
		c1.53-6.302,3.005-12.675,4.657-19.003c0.522-1.998,0.376-3.06-1.697-4.22c-4.863-2.724-9.465-5.914-14.363-9.035
		c-1.549,1.721-3.097,3.442-4.943,5.494c4.447,3.339,8.864,6.657,13.049,9.798c-1.522,1.116-2.984,2.189-4.791,3.513
		c-3.016-2.062-7.235-4.946-12.084-8.263c-17.02,20.375-34.027,40.735-51.033,61.094c0.43,0.396,0.86,0.791,1.292,1.186
		c10.949-11.008,21.898-22.015,33.013-33.188c5.839,3.911,12.185,8.09,18.411,12.438c0.68,0.473,0.779,1.908,0.945,2.93
		c0.08,0.487-0.329,1.046-0.496,1.58c-2.2,6.996-3.267,5.012,3.61,9.055c0.589-1.561,1.21-3.074,1.729-4.623
		c0.484-1.445,0.858-2.926,1.433-4.919c5.121,3.21,9.963,6.248,15.125,9.484c-2.344-6.799-4.653-13.177-11.712-15.914
		c-0.091-0.404-0.228-0.643-0.172-0.822c2.705-8.79,2.693-8.74,11.588-6.535c4.522,1.121,9.098,2.026,13.983,3.102
		c0,4.149,0.007,8.151-0.001,12.156c-0.033,16.335-0.092,32.67-0.075,49.004c0.002,2.025-0.39,3.401-2.285,4.665
		c-4.313,2.873-4.946,8.979-1.689,13.024c3.079,3.823,8.987,4.35,12.945,1.151c4-3.229,4.805-9.183,0.956-12.698
		c-2.822-2.58-3.022-5.293-3.015-8.571c0.04-17.678-0.022-35.355-0.048-53.033c-0.001-1.449,0-2.899,0-4.557
		c5.9,0,11.633,0,17.568,0c0,33.232,0,66.297,0,99.742c-38.277,1.117-72.466-10.596-104.238-31.275
		c3.336-5.565,6.399-10.74,9.559-15.857c0.41-0.664,1.265-1.132,2.008-1.499c5.342-2.627,7.468-7.769,5.042-13.111
		c-0.929-2.046-0.736-3.39,0.634-5.087c4.565-5.655,8.981-11.428,13.433-17.173c0.877-1.133,1.661-2.338,2.571-3.627
		c-1.759-1.313-3.34-2.491-5.306-3.954c-2.22,2.436-4.537,4.796-6.644,7.33c-4.077,4.9-8.009,9.919-12.072,14.83
		c-0.654,0.792-1.642,1.77-2.532,1.831c-8.074,0.555-11.381,10.44-5.814,16.498c0.221,0.239,0.368,0.547,0.7,1.052
		c-2.989,4.302-6.024,8.669-9.232,13.286c-13.201-10.206-25.251-21.256-35.608-34.389c0.634-0.45,1.158-0.796,1.655-1.179
		c0.441-0.339,0.852-0.717,1.284-1.083c2.938,2.432,5.845,4.84,8.521,7.056c22.197-26.337,44.203-52.496,66.315-78.565
		c1.429-1.687,3.541-2.98,5.583-3.922c4.345-2.005,8.852-3.658,13.865-5.686c1.715,0.084,3.493,6.096,6.518,0.767
		c-0.861-0.423-1.685-0.765-2.446-1.212c-3.677-2.158-5.509-5.357-4.852-8.4c0.767-3.548,4.156-6.384,8.211-6.861
		c0.333-0.039,0.671-0.02,1.006-0.043c2.701-0.183,5.403-0.369,8.104-0.554c-0.127-3.995,0.888-8.495-0.614-11.881
		c-3.367-7.589-5.48-15.314-6.097-23.706c-4.336-0.195-6.461-3.225-8.373-6.452c-3.779-6.378-5.548-13.394-6.157-20.705
		c-0.29-3.47,0.095-6.833,4.523-8.064c-1.073-2.485-0.063-5.129-2.887-7.417c-1.414-1.147-0.63-5.575-0.147-8.399
		c4.474-26.201,25.893-42.249,50.496-42.121c21.159,0.11,37.646,9.279,47.591,28.649c3.361,6.546,4.302,13.575,3.846,20.811
		C438.221,164.519,437.127,165.429,436.51,166.37z M402.408,189.784c1.943-2.049,3.51-3.703,5.422-5.717
		c-4.395-2.175-2.504-4.7-1.181-7.301c1.23-2.416,0.479-6.375,4.94-5.856c1.113-6.765,0.844-7.373-3.5-8.273
		c-0.541-1.354-0.95-2.766-1.645-4.022c-1.21-2.188-2.43-4.224-0.096-6.512c0.339-0.332,0.111-1.738-0.321-2.26
		c-1.027-1.242-2.336-2.252-3.724-3.531c-2.494,3.521-4.849,2.09-7.426,0.642c-2.384-1.342-6.095-1.257-4.701-5.729
		c-2.909,0-5.402,0-7.966,0c-0.217,1.712-0.394,3.101-0.54,4.248c-1.916,0.604-3.7,0.796-5.043,1.668
		c-2.731,1.772-5.056,2.121-7.159-1.187c-1.804,1.896-3.369,3.541-5.195,5.459c3.772,1.991,3.131,4.436,1.322,7.017
		c-0.126,0.181-0.235,0.387-0.297,0.597c-0.635,2.185-0.778,4.829-4.288,4.135c-0.273-0.055-1.083,1.061-1.125,1.667
		c-0.144,2.081-0.056,4.178-0.056,6.619c5.346-1.121,4.112,3.336,5.659,5.463c2.236,3.076,1.72,5.411-1.986,7.702
		c2.264,1.867,4.109,3.388,5.399,4.452c1.952-0.547,3.8-1.693,5.301-1.344c2.617,0.606,5.02,2.134,7.727,3.373
		c0.059,0.952,0.138,2.252,0.224,3.644c2.669,0,5.148,0,7.706,0c0.105-1.512,0.19-2.713,0.26-3.728
		c1.938-0.802,3.81-1.28,5.347-2.277C397.997,187.091,400.225,186.305,402.408,189.784z M335.072,366.399
		c5.827,0.036,10.171-4.431,10.194-10.481c0.023-5.955-4.32-10.345-10.293-10.406c-5.489-0.056-10.505,4.63-10.635,9.934
		C324.196,361.331,329.125,366.361,335.072,366.399z M310.592,382.122c-0.02,4.144,3.022,7.454,6.909,7.518
		c3.73,0.062,6.804-3.147,6.859-7.159c0.054-3.944-2.984-7.076-6.869-7.081C313.708,375.396,310.61,378.413,310.592,382.122z"/>
	<path fill-rule="evenodd" clip-rule="evenodd" d="M575.504,424.281c-14.902,22.782-29.331,44.85-43.788,66.9
		c-0.527,0.805-1.214,1.758-2.043,2.077c-11.229,4.317-22.497,8.532-34.456,13.039c6.14-10.897,11.945-21.203,17.963-31.882
		c-3.725,1.369-7.073,2.464-10.292,3.857c-1.135,0.492-2.149,1.578-2.889,2.625c-5.151,7.309-10.317,14.609-15.242,22.07
		c-1.375,2.085-2.864,3.519-5.234,4.235c-26.778,8.076-49.653,23.875-73.723,37.313c-5.661,3.16-11.395,6.194-17.012,9.431
		c-1.754,1.008-3.112,1.013-4.88,0.014c-16.938-9.557-34.012-18.877-50.867-28.578c-12.952-7.453-26.615-13.185-40.61-18.272
		c-1.803-0.656-3.58-2.171-4.708-3.757c-5.509-7.74-10.773-15.654-16.188-23.462c-0.53-0.765-1.408-1.442-2.273-1.79
		c-3.188-1.283-6.438-2.405-10.621-3.94c6.49,11.034,12.522,21.292,19.011,32.324c-10.004-3.903-19.024-7.765-28.286-10.913
		c-5.813-1.979-9.626-5.436-12.884-10.572c-11.855-18.688-24.127-37.113-36.224-55.648c-1.023-1.566-1.917-3.22-3.217-5.416
		c6.773,2.723,12.937,5.16,19.07,7.671c39.695,16.25,79.399,32.477,119.065,48.799c10.636,4.378,21.231,8.877,31.696,13.649
		c12.654,5.772,24.929,5.701,37.861,0.281c46.257-19.392,92.695-38.348,139.077-57.443c9.396-3.867,18.833-7.627,28.259-11.426
		C572.973,425.104,573.908,424.827,575.504,424.281z"/>
	<path fill-rule="evenodd" clip-rule="evenodd" d="M220.387,255.287c4.662-2.115,8.805-3.995,13.121-5.952
		c-0.721-2.145-1.347-4.001-2.089-6.207c6.877-3.638,13.723-7.26,20.374-10.78c5.03,10.798,9.856,21.158,14.847,31.871
		c-1.727,0-3.567,0-5.407,0c-9.844,0.005-19.689,0.059-29.533-0.024c-2.32-0.02-4.659-0.376-6.95-0.794
		c-3.007-0.55-5.855,1.04-6.11,3.614c-0.236,2.39,1.7,4.198,4.917,4.2c14.542,0.001,29.084,0.012,43.624-0.218
		c3.112-0.049,4.901,0.772,6.784,3.411c4.339,6.081,9.279,11.733,14.142,17.767c-6.264,6.943-12.572,13.935-19.012,21.074
		c-0.695-5.127-0.967-9.898-2.042-14.481c-2.345-9.996-9.261-15.532-19.454-15.654c-10.041-0.12-20.151-0.929-30.024,1.84
		c-1.286,0.361-2.554,0.782-4.302,1.319c-11.088-26.231-14.644-53.826-13.18-82.074c1.542-29.775,9.662-57.741,25.495-83.805
		c5.079,3.862,9.917,7.542,15.098,11.483c1.712-2.317,3.33-4.504,5.086-6.882c-5.145-4.114-10.086-8.064-15.129-12.096
		c2.102-3.111,4.084-6.045,6.347-9.393c10.735,7.984,21.346,15.876,31.933,23.751c-3.076,5.019-5.869,9.575-8.847,14.431
		c-5.909-1.991-11.798-3.971-17.685-5.959c-7.312-2.469-7.321-2.476-10.256,4.563c-0.768,1.842-1.453,3.718-2.32,5.948
		c8.368,3.206,16.534,6.336,24.625,9.436c-2.265,9.034-4.471,17.839-6.81,27.169c-6.063-0.93-12.69,1.558-19.2-1.504
		c-3.392-1.595-7.88,0.075-10.145,3.11c-1.456,1.949-2.675,4.075-4.035,6.176c1.625,2.021,3.024,3.903,4.567,5.656
		c3.058,3.474,7.934,3.98,11.734,1.362c0.695-0.479,1.515-1.061,2.292-1.084c3.913-0.125,7.829-0.09,11.745-0.089
		c0.875,0,1.749,0.088,2.491,0.128c0.646,7.28,1.336,14.353,1.81,21.442c0.05,0.739-1.021,1.882-1.846,2.298
		c-9.277,4.674-18.604,9.25-27.926,13.833c-1.593,0.784-3.228,1.482-5.294,2.426C215.995,242.789,218.125,248.85,220.387,255.287z
		 M232.258,167.465c0.04-2.95-2.459-5.448-5.545-5.542c-3.041-0.093-5.746,2.63-5.752,5.79c-0.005,2.889,2.706,5.626,5.579,5.633
		C229.535,173.352,232.215,170.595,232.258,167.465z M227.983,216.124c0.05-2.669-2.815-5.491-5.653-5.568
		c-3.025-0.08-5.604,2.536-5.685,5.764c-0.079,3.207,2.073,5.496,5.266,5.602C225.087,222.026,227.923,219.319,227.983,216.124z"/>
	<path fill-rule="evenodd" clip-rule="evenodd" d="M386.209,486.225c6.576-8.678,12.68-17.639,19.703-25.809
		c12.825-14.916,28.74-26.126,45.722-35.823c30.309-17.309,62.535-30.253,95.46-41.568c1.586-0.543,3.163-1.111,4.741-1.67
		c1.553-0.551,3.108-1.107,5.397-1.924c-3.196,6.771-6.648,12.76-8.881,19.175c-2.365,6.792-6.923,9.552-13.477,11.485
		c-21.109,6.227-41.988,13.148-62.005,22.496c-23.312,10.884-45.083,24.226-65.519,39.796c-7.014,5.344-13.9,10.858-20.848,16.297
		c-28.909-24.643-60.958-44.647-96.076-59.45c-17.07-7.198-34.772-12.896-52.2-19.242c-2.833-1.032-5.743-1.845-8.574-2.879
		c-0.777-0.285-1.718-0.848-2.04-1.536c-4.005-8.582-7.912-17.213-11.298-26.479c5.994,2.204,11.998,4.378,17.978,6.617
		c28.705,10.75,56.831,22.795,83.745,37.541c17.835,9.771,34.53,21.111,48.553,36.014
		C374.415,467.577,381.214,476.666,386.209,486.225z"/>
	<path fill-rule="evenodd" clip-rule="evenodd" d="M434.613,227.991c0.593-4.291,1.143-8.468,1.781-12.631
		c0.087-0.568,0.502-1.203,0.951-1.583c7.115-5.973,10.492-14.021,12.604-22.742c1.657-6.845,1.739-13.708-0.171-20.542
		c-0.116-0.417-0.199-0.911-0.091-1.315c3.604-13.601-0.161-25.804-7.253-37.495c9.973-9.702,19.883-19.346,29.866-29.059
		c48.604,38.705,55.89,101.773,34.242,145.495c-2.475-0.63-4.941-1.154-7.327-1.932c-0.668-0.218-1.339-1.097-1.591-1.818
		c-1.475-4.228-3.836-7.767-7.354-10.59c-1.618-1.301-1.555-4.579-0.108-5.824c3.271-2.811,3.621-7.138,0.834-10.261
		c-2.869-3.211-8.081-3.426-11.113-0.456c-2.63,2.577-3.081,5.907-1.239,9.175c0.424,0.754,0.853,1.504,1.524,2.686
		c-2.99,0.641-5.649,1.208-8.309,1.778C463.311,210.81,441.629,213.73,434.613,227.991z M499.776,184.399c0-2.876,0-5.174,0-7.83
		c-3.587,0-6.994,0-10.782,0c0-15.059,0-29.762,0-44.52c-2.48,0-4.56,0-7.104,0c0,14.977,0,29.755,0,44.44
		c-3.555,0-6.637,0-10.087,0c0-14.927,0-29.627,0-44.321c-2.333,0-4.286,0-6.52,0c0,14.851,0,29.459,0,44.521
		c-3.465,0-6.65,0-9.924,0c0,2.738,0,5.015,0,7.765c3.391,0,6.559,0,9.971,0c0,6.691,0,12.91,0,19.279c2.231,0,4.196,0,6.548,0
		c0-6.452,0-12.757,0-19.147c3.558,0,6.726,0,10.188,0c0,6.432,0,12.652,0,18.997c2.443,0,4.588,0,7.11,0c0-6.454,0-12.666,0-19.184
		C492.86,184.399,496.17,184.399,499.776,184.399z"/>
	<path fill-rule="evenodd" clip-rule="evenodd" d="M356.892,565.355c-10.447,3.455-19.643,7.942-29.857,8.066
		c-4.925,0.059-10.118-0.658-14.759-2.266c-17.735-6.139-35.17-13.157-52.979-19.063c-7.667-2.541-12.527-7.041-16.567-13.726
		c-8.431-13.954-17.441-27.559-26.36-41.535c2.472-2.096,4.742-4.017,7.323-6.204c2.868,2.777,5.647,5.457,8.416,8.148
		c8.013,7.791,16.088,15.515,23.982,23.423c2.073,2.077,3.792,2.375,6.673,1.594c7.488-2.027,15.095-4.496,22.749-4.872
		c21.07-1.037,38.976,6.99,53.184,22.318C345.382,548.45,350.648,556.978,356.892,565.355z"/>
	<path fill-rule="evenodd" clip-rule="evenodd" d="M416.761,565.641c5.598-10.327,11.575-19.907,19.838-27.75
		c15.087-14.324,33.237-20.645,53.87-18.994c6.348,0.509,12.662,2.557,18.765,4.586c3.487,1.16,5.57,0.689,8.109-1.878
		c10.052-10.173,20.338-20.113,30.541-30.135c0.308-0.305,0.669-0.562,1.187-0.991c2.305,1.956,4.582,3.888,7.19,6.103
		c-3.482,5.573-6.901,11.149-10.428,16.658c-6.925,10.82-13.866,21.635-20.93,32.363c-0.898,1.364-2.413,2.668-3.931,3.231
		c-18.839,7.017-37.892,13.489-56.561,20.928c-14.389,5.733-27.956,3.815-41.607-1.8
		C420.863,567.163,418.885,566.454,416.761,565.641z"/>
	<path fill-rule="evenodd" clip-rule="evenodd" d="M483.345,297.272c5.213-5.847,10.479-11.75,15.896-17.825
		c4.491,2.336,9.011,4.689,13.747,7.155c1.077-2.072,2.035-3.915,3.081-5.925c0.874,0.398,1.755,0.799,2.556,1.164
		c0.069,0.382,0.198,0.633,0.131,0.805c-2.11,5.357-2.12,5.367,3.169,8.085c1.489,0.765,3.026,1.435,5.025,2.377
		c2.613-5.526,5.2-11.006,7.966-16.858c-2.514-1.253-4.787-2.657-7.257-3.479c-0.905-0.302-2.27,0.778-4.26,1.551
		c-4.348-2.6-9.591-5.739-15.147-9.062c2.103-4.283,4.085-8.599,6.393-12.732c0.376-0.676,2.319-0.99,3.327-0.711
		c4.299,1.187,8.515,2.677,12.77,4.02c1.364,0.43,2.757,0.751,4.298,1.165c0.544-1.573,1.006-2.903,1.56-4.5
		c3.647,1.165,7.201,2.3,11.276,3.601c1.259-5.016,2.461-9.803,3.733-14.869c-4.192-1.333-7.878-2.503-11.691-3.715
		c-0.649,1.189-1.169,2.135-1.832,3.356c-5.525-1.542-11.055-3.084-16.924-4.722c1.267-5.267,2.48-10.323,3.73-15.529
		c15.847,0,31.56,0,47.9,0c-0.548,6.69-0.845,13.243-1.657,19.733c-2.66,21.284-8.042,41.825-17.138,61.334
		c-1.227,2.629-2.49,3.698-5.673,3.652c-17.555-0.26-35.118-0.24-52.675-0.085c-3.397,0.03-6.048-0.565-8.12-3.384
		C486.347,300.268,484.843,298.899,483.345,297.272z M558.341,278.776c0.038-2.801-2.73-5.657-5.543-5.717
		c-2.72-0.057-5.512,2.726-5.653,5.636c-0.132,2.764,2.571,5.456,5.581,5.554C555.677,284.346,558.301,281.79,558.341,278.776z"/>
	<path fill-rule="evenodd" clip-rule="evenodd" d="M486.235,381.824c-4.771-11.335-9.377-22.281-13.986-33.227
		c-0.379,0.093-0.761,0.186-1.144,0.279c0.363,6.602,0.726,13.204,1.09,19.806c0.343,6.241,0.729,12.48,0.983,18.726
		c0.033,0.824-0.378,2.146-0.975,2.438c-6.199,3.035-12.477,5.907-18.746,8.832c-1.513-16.299-2.439-32.239-4.608-48.008
		c-2.148-15.644-5.549-31.118-8.402-46.684c7.885-4.093,16.37-8.497,25.204-13.083c1.175,1.429,2.637,3.205,4.106,4.989
		c-1.543,1.261-3.525,2.88-5.683,4.644c4.44,4.064,8.92,7.995,13.213,12.121c13.321,12.806,21.313,28.523,24.71,46.568
		c2.302,12.233,3.693,7.952-6.273,15.8C492.669,377.43,489.403,379.566,486.235,381.824z"/>
	<path fill-rule="evenodd" clip-rule="evenodd" d="M267.373,103.685c-0.884,0.941-1.551,1.669-2.235,2.378
		c-5.592,5.791-3.35,5.975-10.211,0.556c-4.202-3.317-8.152-6.95-12.676-10.837c25.317-31.933,57.054-53.732,96.597-65.041
		c1.881,13.694,3.697,26.906,5.537,40.308c-11.556,3.751-22.604,8.414-32.966,14.667c-10.319,6.226-19.497,13.815-28.078,22.729
		c-2.429-2.169-4.817-4.3-7.161-6.394c0.81-2.535-1.245-7.473-4.194-7.538c-2.729-0.06-5.519,2.675-8.665,4.388
		C265.02,100.91,266.078,102.158,267.373,103.685z M282.992,74.696c-3.274-0.063-5.91,2.511-6.015,5.873
		c-0.105,3.403,2.551,6.301,5.873,6.408c3.549,0.114,6.271-2.344,6.427-5.806C289.429,77.816,286.466,74.763,282.992,74.696z
		 M322.518,64.175c3.278-0.016,5.736-2.629,5.723-6.084c-0.013-3.582-2.56-6.149-6.068-6.116c-3.371,0.032-5.998,2.77-6.011,6.266
		C316.148,61.481,319.053,64.191,322.518,64.175z M302.084,62.17c-3.434-0.083-6.111,2.554-6.186,6.091
		c-0.073,3.428,2.587,6.062,6.142,6.083c3.217,0.02,5.792-2.612,5.902-6.033C308.044,65.181,305.246,62.249,302.084,62.17z"/>
	<path fill-rule="evenodd" clip-rule="evenodd" d="M302.251,276.107c-2.24-3.183-4.492-5.651-5.88-8.534
		c-1.908-3.966-4.134-7.369-8.246-9.296c-0.667-0.311-1.05-1.187-1.63-1.729c-2.915-2.735-5.511-6.056-8.903-7.941
		c-2.139-1.19-5.478-0.222-9.04-0.222c-2.252-5.24-4.737-11.021-7.222-16.804c0.212-0.25,0.425-0.501,0.638-0.75
		c1.16,0.409,2.334,0.784,3.479,1.233c4.023,1.58,8.297,0.427,10.428-2.842c2.307-3.537,1.784-8.246-1.224-11.03
		c-3.198-2.959-7.906-3.211-11.364-0.605c-3.68,2.771-4.287,2.573-5.142-1.983c-0.493-2.63-1-5.295-1.081-7.957
		c-0.166-5.452-0.049-10.913-0.049-17.372c11.442,9.408,22.49,18.493,33.76,27.76c1.376-1.432,2.635-2.792,3.948-4.098
		c6.472-6.434,14.249-7.758,22.567-4.925c8.696,2.962,13.485,9.52,14.968,18.538c0.378,2.294,0.808,4.581,1.201,6.796
		c-4.671,3.917-6.769,9.735-7.799,16.153c-5.79-1.377-10.698,2.15-9.983,8.072c0.144,1.192-0.513,2.774-1.321,3.74
		C310.705,266.679,306.865,270.888,302.251,276.107z M299.968,227.466c0.074,5.929,4.345,10.26,10.078,10.218
		c5.566-0.04,9.954-4.714,9.891-10.538c-0.058-5.375-4.738-9.9-10.213-9.875C304.214,217.296,299.897,221.808,299.968,227.466z"/>
	<path fill-rule="evenodd" clip-rule="evenodd" d="M335.376,126.94c-9.529-8.997-18.78-17.732-28.441-26.854
		c17.943-13.632,37.974-21.284,60.037-24.889c0-16.652,0-33.279,0-50.326c4.905-0.408,9.522-0.791,14.442-1.2
		c0,26.125,0,51.876,0,77.777C362.263,102.838,346.997,111.139,335.376,126.94z M355.363,98.952
		c3.601,0.031,6.574-2.862,6.665-6.489c0.091-3.586-2.851-6.718-6.38-6.794c-3.511-0.075-6.652,2.982-6.686,6.504
		C348.928,95.808,351.869,98.922,355.363,98.952z M332.774,109.858c3.536,0.067,6.131-2.394,6.258-5.938
		c0.116-3.218-2.527-5.862-5.875-5.877c-3.093-0.013-5.788,2.533-5.912,5.586C327.108,107.011,329.582,109.797,332.774,109.858z"/>
	<path fill-rule="evenodd" clip-rule="evenodd" d="M407.564,24.78c1.449,0.118,2.56,0.208,3.673,0.296
		c0.996,0.078,1.991,0.152,3.372,0.256c0,17.141,0,34.191,0,51.366c18.367,3.28,34.956,10.092,50.457,20.137
		c-9.498,9.162-18.865,18.197-28.311,27.31c-10.84-13.258-25.931-20.32-43.756-22.678c0-25.741,0-51.488,0-77.083
		c0.335-0.208,0.423-0.306,0.515-0.313c6.935-0.424,6.978-0.423,6.971,6.422c-0.019,18.564-0.03,37.127-0.178,55.691
		c-0.021,2.582,0.71,3.634,3.315,4.206c10.4,2.28,20.334,5.961,29.789,10.854c1.842,0.952,3.273,2.703,5.124,3.619
		c1.519,0.75,3.667,1.503,5,0.954c1.144-0.471,2.403-3.065,2.037-4.214c-0.506-1.564-2.383-2.824-3.908-3.872
		c-1.097-0.754-2.702-0.74-3.866-1.428c-8.721-5.149-17.974-8.971-27.822-11.316c-1.716-0.408-2.659-0.97-2.65-3.037
		c0.063-18.563,0.011-37.126,0.003-55.691C407.329,25.831,407.462,25.402,407.564,24.78z"/>
	<path fill-rule="evenodd" clip-rule="evenodd" d="M441.017,404.684c-6.396,1.643-12.736,3.271-19.74,5.069
		c-0.472-33.133-0.376-65.9-6.339-98.671c5.476-1.398,10.804-2.759,16.438-4.198C439.186,339.071,441.195,371.572,441.017,404.684z"
		/>
	<path fill-rule="evenodd" clip-rule="evenodd" d="M509.485,132.824c5.482-3.696,11.008-7.419,16.748-11.288
		c-2.458-3.918-4.818-7.682-7.238-11.542c-6.026,3.602-11.914,7.123-17.677,10.569c-5.641-6.354-11.111-12.515-16.89-19.026
		c2.935-2.713,5.998-5.544,9.289-8.587c1.545,1.464,2.915,2.764,4.54,4.304c5.991-5.222,12.355-10.77,19.043-16.599
		c2.783,3.403,5.444,6.657,8.224,10.057c-3.637,2.827-7.222,5.615-10.303,8.01c8.229,11.578,16.391,23.06,24.879,35.003
		c3.022-1.14,6.942-2.619,11.369-4.289c2.014,5.854,3.987,11.591,6.114,17.768c-5.891,1.596-11.423,3.093-17.223,4.664
		c-1.174-2.996-3.4-2.624-6.09-1.896c-4.922,1.33-9.949,2.274-14.956,3.384C516.062,146.561,512.844,139.841,509.485,132.824z"/>
	<path fill-rule="evenodd" clip-rule="evenodd" d="M455.284,578.026c0,3.606,0.128,7.49-0.104,11.354
		c-0.049,0.811-1.285,1.9-2.209,2.254c-13.863,5.305-27.771,10.49-41.652,15.741c-5.285,2.001-10.532,4.1-16.408,6.392
		c0-2.417,0.002-4.271,0-6.121c-0.006-8.383,0.151-16.766-0.091-25.14c-0.104-3.549,0.802-6.35,2.95-9.173
		c5.214-6.852,5.019-6.726,13.132-3.991c9.275,3.124,18.584,6.313,28.102,8.481C444.059,578.977,449.591,578.026,455.284,578.026z"
		/>
	<path fill-rule="evenodd" clip-rule="evenodd" d="M264.594,153.569c3.177,2.06,5.737,3.272,7.641,5.15
		c0.907,0.894,0.57,3.053,0.797,4.641c0.23,1.619-0.12,3.84,0.809,4.735c2.048,1.975,4.686,3.382,7.215,4.781
		c0.537,0.298,1.739-0.263,2.462-0.709c3.596-2.215,7.543-2.428,11.61-2.396c9.38,0.075,18.759,0.024,28.423,0.024
		c-2.255,10.569-1.053,20.562,3.604,30.631c-13.321-7.702-25.75-6.94-38.268,1.837c-6.256-5.394-12.833-11.085-19.436-16.748
		c-2.967-2.545-6.03-4.982-8.944-7.588c-0.681-0.609-1.462-1.825-1.294-2.553C260.824,168.371,262.628,161.411,264.594,153.569z
		 M290.276,190.241c3.825-0.015,6.842-2.993,6.826-6.734c-0.014-3.336-3.154-6.352-6.561-6.3c-3.262,0.049-6.662,3.501-6.692,6.795
		C283.817,187.5,286.657,190.256,290.276,190.241z"/>
	<path fill-rule="evenodd" clip-rule="evenodd" d="M271.75,141.444c5.147-9.294,10.04-18.188,18.504-24.362
		c5.619-4.098,8.803-4.155,14.642-0.276c2.787,1.852,5.548,3.767,8.146,5.867c5.545,4.482,10.978,9.104,15.989,13.28
		c-2.197,6.734-4.251,13.033-6.502,19.93c-0.388,0.02-1.568,0.135-2.748,0.139c-8.487,0.027-16.975-0.032-25.461,0.083
		c-2.468,0.032-4.411-0.582-6.377-2.182C282.688,149.646,277.22,145.63,271.75,141.444z M307.421,136.422
		c0.01-5.857-4.224-10.301-9.928-10.423c-5.386-0.114-10.464,4.826-10.415,10.131c0.056,6.042,4.419,10.511,10.227,10.477
		C303.109,146.572,307.413,142.239,307.421,136.422z"/>
	<path fill-rule="evenodd" clip-rule="evenodd" d="M397.013,313.713c3.156-0.374,6.229-0.737,9.799-1.161
		c3.929,32.85,4.525,65.702,4.16,98.847c-2.497,0.366-4.771,0.762-7.063,1.021c-2.203,0.248-4.425,0.351-6.897,0.538
		C397.013,379.842,397.013,346.907,397.013,313.713z"/>
	<path fill-rule="evenodd" clip-rule="evenodd" d="M359.526,483.763c-50.955-23.932-103.922-42.895-156.893-62.719
		c1.876-2.801,3.337-5.427,5.282-7.619c0.586-0.661,2.663-0.511,3.813-0.08c9.205,3.444,18.297,7.191,27.525,10.573
		c35.22,12.908,68.734,29.424,101.382,47.77c5.056,2.841,9.859,6.132,14.762,9.241C356.807,481.822,358.153,482.814,359.526,483.763
		z"/>
	<path fill-rule="evenodd" clip-rule="evenodd" d="M413.551,482.555c11.609-6.648,22.97-13.791,34.887-19.837
		c19.903-10.093,39.913-20.059,60.351-28.997c17.364-7.593,35.389-13.676,53.161-20.329c0.698-0.262,2.106,0.229,2.631,0.844
		c1.811,2.108,3.374,4.426,5.348,7.092c-52.741,19.284-105.271,38.361-155.848,62.302
		C413.906,483.271,413.729,482.912,413.551,482.555z"/>
	<path fill-rule="evenodd" clip-rule="evenodd" d="M317.366,577.926c5.853,0,11.544,1.037,16.673-0.218
		c10.364-2.54,20.472-6.181,30.588-9.651c6.018-2.065,5.935-2.308,9.26,3.732c-7.856,3.215-15.704,6.427-23.55,9.639
		c0.11,0.353,0.219,0.702,0.329,1.053c4.438-0.646,8.876-1.292,13.561-1.974c0,3.524,0,6.836,0,10.539
		c-2.259,0.156-4.531,0.312-6.949,0.478c0,1.475,0,2.768,0,4.279c2.316,0.283,4.595,0.56,7.02,0.856c0,3.816,0,7.47,0,11.634
		c-1.484-0.409-2.85-0.677-4.136-1.152c-13.304-4.931-26.579-9.938-39.907-14.804c-2.264-0.825-3.062-2.048-2.934-4.401
		C317.502,584.62,317.366,581.286,317.366,577.926z"/>
	<path fill-rule="evenodd" clip-rule="evenodd" d="M533.541,336.431c-6.833-4.686-13.042-8.948-19.545-13.409
		c-1.222,2.468-2.146,4.333-3.177,6.414c5.874,4.595,11.654,9.115,17.826,13.945c-4.624,5.008-9.124,9.882-14.209,15.388
		c-3.622-16.723-8.074-32.402-19.067-46.102c18.026,0,35.383,0,53.425,0C543.627,320.715,538.661,328.453,533.541,336.431z"/>
	<path fill-rule="evenodd" clip-rule="evenodd" d="M426.691,259.961c10.898,8.061,21.472,15.879,32.977,24.39
		c-8.252,4.383-15.668,8.322-23.207,12.324c-2.507-5.229-4.643-10.102-7.135-14.79c-3.197-6.01-6.51-11.976-10.11-17.749
		c-1.505-2.411-2.229-4.695-2.121-7.488c0.163-4.227,0.042-8.463,0.042-13.299c3.474,0,6.574-0.104,9.664,0.028
		c3.57,0.152,7.516,3.607,8.168,6.928c0.523,2.668-2.432,7.3-5.662,8.793C428.539,259.455,427.69,259.638,426.691,259.961z"/>
	<path fill-rule="evenodd" clip-rule="evenodd" d="M572.046,194.837c0,5.9,0,11.563,0,17.557c-15.027,0-30.235,0-45.548,0
		c0-5.75,0-11.488,0-17.557C541.651,194.837,556.556,194.837,572.046,194.837z"/>
	<path fill-rule="evenodd" clip-rule="evenodd" d="M568.523,171.821c0.625,5.446,1.155,10.069,1.716,14.952
		c-14.821,0-29.281,0-43.964,0c-0.629-4.726-1.255-9.438-1.926-14.478c6.1,0,12.088,0,18.457,0c0-4.038,0-7.779,0-11.859
		c1.55,0.105,2.699,0.183,4.209,0.285c0,2.447-0.236,4.783,0.081,7.042c0.212,1.522,0.862,3.263,1.903,4.34
		c4.162,4.315,4.558,4.08,10.092,1.769C561.842,172.726,564.997,172.55,568.523,171.821z"/>
	<path fill-rule="evenodd" clip-rule="evenodd" d="M444.291,256.129c4.748,1.81,9.593,2.542,14.62,0.851
		c0.513-0.173,1.906,1.084,2.312,1.949c4.961,10.555,16.693,15.109,26.887,9.78c3.505-1.833,6.202-5.214,9.425-8.023
		c1.874,1.293,1.95,3.109,0.101,5.369c-2.332,2.846-4.354,5.947-6.711,8.77c-3.999,4.791-8.157,9.448-12.253,14.169
		c-8.54-7.433-16.809-14.686-25.151-21.857c-2.619-2.251-5.368-4.364-8.176-6.379C443.621,259.518,442.971,258.239,444.291,256.129z
		"/>
	<path fill-rule="evenodd" clip-rule="evenodd" d="M241.887,323.233c-7.53-0.093-13.498-6.446-13.374-14.238
		c0.116-7.287,6.308-13.205,13.714-13.102c7.966,0.108,14.103,6.038,14.027,13.552C256.177,317.056,249.642,323.328,241.887,323.233
		z"/>
	<path fill-rule="evenodd" clip-rule="evenodd" d="M490.088,55.093c4.988,4.14,9.521,7.905,14.529,12.063
		c-7.397,7.325-14.523,14.38-21.822,21.606c-4.394-3.681-8.464-7.09-12.799-10.722C476.726,70.354,483.254,62.898,490.088,55.093z"
		/>
	<path fill-rule="evenodd" clip-rule="evenodd" d="M464.591,60.257c-0.053,7.394-5.588,12.713-13.165,12.65
		c-7.183-0.059-12.475-5.215-12.458-12.14c0.017-7.953,5.468-13.535,13.118-13.432C459.357,47.434,464.646,52.896,464.591,60.257z"
		/>
	<path fill-rule="evenodd" clip-rule="evenodd" d="M348.415,471.957c-33.907-18.643-68.629-35.589-104.406-50.344
		C282.165,431.416,318.156,445.729,348.415,471.957z"/>
	<path fill-rule="evenodd" clip-rule="evenodd" d="M526.633,422.305c-34.892,14.33-68.773,30.749-101.77,48.998
		C454.557,446.219,489.019,430.998,526.633,422.305z"/>
	<path fill-rule="evenodd" clip-rule="evenodd" d="M452.804,226.78c5.393-0.073,10.275,4.738,10.339,10.186
		c0.063,5.208-5.162,10.319-10.648,10.414c-5.331,0.092-10.045-4.495-10.191-9.919C442.144,231.567,446.771,226.861,452.804,226.78z
		"/>
	<path fill-rule="evenodd" clip-rule="evenodd" d="M479.611,240.673c5.415,0.034,10.105,4.981,9.978,10.52
		c-0.122,5.28-4.91,9.816-10.367,9.825c-5.442,0.008-9.997-4.551-10.061-10.071C469.097,245.164,473.701,240.637,479.611,240.673z"
		/>
	<path fill-rule="evenodd" clip-rule="evenodd" d="M428.354,71.496c-2.301-0.496-4.342-0.935-6.584-1.417c0-14.604,0-29.093,0-43.81
		c2.125,0.319,4.191,0.629,6.584,0.987C428.354,41.896,428.354,56.476,428.354,71.496z"/>
	<path fill-rule="evenodd" clip-rule="evenodd" d="M557.193,102.243c-0.009,4.512-3.318,7.665-7.989,7.613
		c-4.323-0.049-7.648-3.446-7.545-7.708c0.101-4.166,3.659-7.631,7.823-7.617C553.646,94.545,557.205,98.104,557.193,102.243z"/>
	<path fill-rule="evenodd" clip-rule="evenodd" d="M216.973,109.766c-4.436-0.017-7.614-3.133-7.669-7.52
		c-0.055-4.344,3.471-7.877,7.784-7.801c3.956,0.069,7.68,3.879,7.654,7.833C224.714,106.519,221.328,109.783,216.973,109.766z"/>
	<path fill-rule="evenodd" clip-rule="evenodd" d="M212.501,309.52c-0.087,3.426-3.317,6.455-6.863,6.433
		c-3.743-0.021-6.548-2.907-6.417-6.599c0.133-3.749,2.925-6.444,6.67-6.437C209.412,302.921,212.589,306.097,212.501,309.52z"/>
	<path fill-rule="evenodd" clip-rule="evenodd" d="M569.128,316.031c-3.469,0.024-6.342-2.809-6.405-6.315
		c-0.062-3.365,3.141-6.605,6.564-6.646c3.589-0.043,6.508,2.687,6.563,6.13C575.91,312.943,572.896,316.005,569.128,316.031z"/>
	<path fill-rule="evenodd" clip-rule="evenodd" d="M221.106,344.432c-3.305-0.022-6.068-2.862-6.105-6.276
		c-0.04-3.527,3.006-6.443,6.701-6.416c3.297,0.025,6.219,2.954,6.162,6.179C227.802,341.413,224.644,344.458,221.106,344.432z"/>
	<path fill-rule="evenodd" clip-rule="evenodd" d="M550.1,331.864c3.417-0.016,6.312,2.652,6.396,5.896
		c0.092,3.505-2.92,6.579-6.512,6.649c-3.51,0.069-6.259-2.697-6.325-6.361C543.592,334.561,546.384,331.882,550.1,331.864z"/>
	<path fill-rule="evenodd" clip-rule="evenodd" d="M393.08,434.558c0.074,3.703-2.844,6.796-6.377,6.76
		c-3.207-0.032-6.021-2.813-6.02-5.954c0.001-3.356,3.051-6.375,6.43-6.361C390.313,429.012,393.021,431.534,393.08,434.558z"/>
	<path fill-rule="evenodd" clip-rule="evenodd" d="M338.494,309.118c-1.803,1.513-3.065,2.572-4.561,3.827
		c-4.249-2.988-8.667-6.097-13.118-9.229c1.002-1.5,1.903-2.847,3.14-4.698C328.771,302.364,333.554,305.686,338.494,309.118z"/>
	<path fill-rule="evenodd" clip-rule="evenodd" d="M333.69,297.637c-4.117-2.789-8.23-5.575-12.568-8.513
		c1.241-1.485,2.345-2.808,3.647-4.367c4.127,2.899,8.165,5.732,12.334,8.659C335.813,295.013,334.798,296.266,333.69,297.637z"/>
	<path fill-rule="evenodd" clip-rule="evenodd" d="M356.858,68.252c-1.8,0.306-3.297,0.561-4.984,0.848
		c-0.157-2.677-0.311-5.296-0.485-8.277c1.553-0.188,3.134-0.38,5.045-0.612C356.581,63.021,356.713,65.52,356.858,68.252z"/>
	<path fill-rule="evenodd" clip-rule="evenodd" d="M357.058,44.504c-1.688,0.189-2.996,0.338-4.566,0.515
		c-0.307-2.691-0.605-5.299-0.946-8.276c1.805-0.109,3.294-0.198,5.061-0.306C356.766,39.295,356.912,41.898,357.058,44.504z"/>
	<path fill-rule="evenodd" clip-rule="evenodd" d="M367.74,389.754c-0.896-1.346-2.564-2.753-2.463-4.018
		c0.097-1.211,2.191-3.308,3.122-3.164c1.415,0.216,3.374,1.892,3.613,3.216c0.205,1.127-1.693,2.633-2.662,3.972
		C368.813,389.757,368.277,389.755,367.74,389.754z"/>
	<path fill-rule="evenodd" clip-rule="evenodd" d="M386.125,154.743c7.224-0.036,13.069,5.862,13.174,13.289
		c0.093,6.654-6.637,13.38-13.413,13.407c-7.043,0.028-13.143-6.285-13.067-13.519C372.896,160.625,378.8,154.78,386.125,154.743z"
		/>
</g>
<rect x="35.5" y="635" fill-rule="evenodd" clip-rule="evenodd" fill="none" width="730.5" height="135.5"/>
<text transform="matrix(1 0 0 1 145.5293 665.041)"><tspan x="0" y="0" font-family="'FuturaBT-Heavy'" font-size="39.685">Departamento de Sistemas  </tspan><tspan x="-66.871" y="47.622" font-family="'FuturaBT-Heavy'" font-size="39.685">Universidad Pedagógica Nacional </tspan><tspan x="46.574" y="95.244" font-family="'FuturaBT-Heavy'" font-size="39.685">Unidad 164 Zitácuaro </tspan></text>
</svg>
